<?xml version="1.0" encoding="iso-8859-1"?>
<!-- Generator: Adobe Illustrator 16.0.0, SVG Export Plug-In . SVG Version: 6.00 Build 0)  -->
<!DOCTYPE svg PUBLIC "-//W3C//DTD SVG 1.1//EN" "http://www.w3.org/Graphics/SVG/1.1/DTD/svg11.dtd">
<svg version="1.1" id="Capa_1" xmlns="http://www.w3.org/2000/svg" xmlns:xlink="http://www.w3.org/1999/xlink" x="0px" y="0px"
	 width="92.277px" height="92.277px" viewBox="0 0 92.277 92.277" style="enable-background:new 0 0 92.277 92.277;"
	 xml:space="preserve">
<g>
	<g>
		<path d="M64.265,43.626l-3.39-1.237l3.267-1.53c8-3.746,12.408-10.202,12.408-18.177c0-7.521-3.916-13.917-10.744-17.548
			C59.464,1.383,52.202,0,38.952,0c-9.941,0-20.689,0.75-26.341,1.833v89.138c3.562,0.508,10.916,1.307,22.002,1.307
			c17.098,0,28.779-2.682,35.71-8.196c6.108-4.944,9.344-11.551,9.344-19.095C79.667,54.984,74.052,47.198,64.265,43.626z
			 M32.346,14.884l1.311-0.166c2.157-0.273,4.733-0.407,7.874-0.407c9.68,0,15.012,3.888,15.012,10.946
			c0,7.279-6.371,11.625-17.045,11.625h-7.15V14.884H32.346z M40.716,77.695c-2.873,0-5.142,0-7-0.16l-1.371-0.118V50.922h7.42
			c12.042,0,18.946,4.829,18.946,13.25C58.712,72.766,52.152,77.695,40.716,77.695z"/>
	</g>
</g>
<g>
</g>
<g>
</g>
<g>
</g>
<g>
</g>
<g>
</g>
<g>
</g>
<g>
</g>
<g>
</g>
<g>
</g>
<g>
</g>
<g>
</g>
<g>
</g>
<g>
</g>
<g>
</g>
<g>
</g>
</svg>
